# xmcd
#
# Track frame offsets:
#	150
#	24656
#	44954
#	63412
#	83301
#	117387
#	136352
#	158308
#	183855
#	208817
#	248580
#
# Disc length: 3330 seconds
#
# Revision: 2
# Processed by: cddbd v1.5.1PL2 Copyright (c) Steve Scherf et al.
# Submitted via: EasyCDDAExtractor 8.0.2.1
#
DISCID=8d0d000b
DTITLE=Saxon - Sommer Open-Air 03-07-04 Disc 1
DYEAR=2004
DGENRE=Hard Rock
TTITLE0=Heavy Metal Thunder
TTITLE1=Dogs Of War
TTITLE2=Backs To The Wall
TTITLE3=20 000 Feet
TTITLE4=The Eagle Has Landed
TTITLE5=Dragon's Liar
TTITLE6=Strong Arm Of The Arm
TTITLE7=Cut Out The Disease
TTITLE8=Solid Ball Of Rock
TTITLE9=Conquistador
TTITLE10=Biff Talks
EXTD=
EXTT0=
EXTT1=
EXTT2=
EXTT3=
EXTT4=
EXTT5=
EXTT6=
EXTT7=
EXTT8=
EXTT9=
EXTT10=
PLAYORDER=
